<?xml version="1.0" standalone="no"?>
<!DOCTYPE svg PUBLIC "-//W3C//DTD SVG 20010904//EN"
 "http://www.w3.org/TR/2001/REC-SVG-20010904/DTD/svg10.dtd">
<svg version="1.0" xmlns="http://www.w3.org/2000/svg"
 width="260.000000pt" height="260.000000pt" viewBox="0 0 260.000000 260.000000"
 preserveAspectRatio="xMidYMid meet">
<metadata>
Created by potrace 1.11, written by Peter Selinger 2001-2013
</metadata>
<g transform="translate(0.000000,260.000000) scale(0.100000,-0.100000)"
fill="#000000" stroke="none">
<path d="M1175 2242 c-69 -6 -217 -52 -298 -93 -193 -97 -350 -260 -439 -456
-39 -87 -78 -239 -81 -320 -1 -35 -4 -63 -7 -64 -3 -1 -79 -2 -170 -4 -91 -1
-167 -3 -170 -4 -3 0 100 -106 229 -235 l234 -234 233 234 c129 129 234 235
234 237 0 2 -79 3 -176 3 l-175 -1 6 68 c24 269 219 515 478 602 92 30 144 38
237 36 111 -2 206 -23 282 -62 l37 -19 87 86 c67 67 84 88 73 95 -36 25 -132
70 -188 89 -126 42 -269 56 -426 42z"/>
<path d="M1892 1545 c-127 -129 -229 -235 -225 -238 5 -2 78 -3 163 -2 85 1
161 -1 168 -3 21 -7 5 -130 -29 -229 -49 -143 -179 -302 -308 -377 -69 -40
-179 -80 -251 -92 -117 -18 -300 7 -399 54 l-41 20 -72 -71 c-113 -111 -110
-101 -31 -140 286 -143 595 -141 878 5 33 17 62 34 65 37 3 3 24 19 47 35 211
143 370 428 387 696 2 30 4 57 5 60 0 3 80 5 176 5 l175 0 -237 237 c-131 131
-238 238 -238 237 0 0 -105 -105 -233 -234z"/>
</g>
</svg>